<?xml version="1.0" encoding="utf-8"?>
<!-- Generator: Adobe Illustrator 28.0.0, SVG Export Plug-In . SVG Version: 6.00 Build 0)  -->
<svg version="1.1" id="레이어_1" xmlns="http://www.w3.org/2000/svg" xmlns:xlink="http://www.w3.org/1999/xlink" x="0px"
	 y="0px" viewBox="0 0 1024 1024" style="enable-background:new 0 0 1024 1024;" xml:space="preserve">
<style type="text/css">
	.st0{fill:none;stroke:#000000;stroke-width:50;stroke-linecap:round;stroke-linejoin:round;stroke-miterlimit:10;}
	.st1{fill:none;stroke:#000000;stroke-width:80;stroke-linecap:round;stroke-linejoin:round;stroke-miterlimit:10;}
	.st2{fill:none;stroke:#000000;stroke-width:60;stroke-linecap:round;stroke-linejoin:round;stroke-miterlimit:10;}
	.st3{fill:none;stroke:#000000;stroke-width:90;stroke-linecap:round;stroke-linejoin:round;stroke-miterlimit:10;}
</style>
<polygon class="st0" points="-1795.06,162.76 -1795.06,706.74 -1343.14,706.74 -1343.14,326.05 -1506.43,162.76 "/>
<polyline class="st0" points="-1343.14,326.05 -1506.43,326.05 -1506.43,162.76 "/>
<polyline class="st0" points="-1497.64,706.74 -1497.64,861.24 -1949.56,861.24 -1949.56,317.26 -1795.06,317.26 "/>
<polyline class="st1" points="780.84,428.58 780.84,351.79 644.87,210.23 404.51,210.23 404.51,681.83 780.84,681.83 780.84,601.15 
	"/>
<polyline class="st2" points="780.84,349.79 644.87,349.79 644.87,208.23 "/>
<polyline class="st1" points="652.19,682.83 652.19,816.77 275.85,816.77 275.85,345.17 404.51,345.17 "/>
<path class="st0" d="M-1569.1,367.32c-61.28,0-110.96,49.68-110.96,110.96s49.68,110.96,110.96,110.96
	c61.28,0,110.96-49.68,110.96-110.96h-110.96"/>
<path class="st3" d="M514.29,53.39H351.7c-166.03,0-300.62,134.15-300.62,299.64v324.13c0,165.49,134.59,299.64,300.62,299.64
	h325.19c166.03,0,300.62-134.15,300.62-299.64V515.09H663.87"/>
</svg>
