<?xml version="1.0" encoding="utf-8"?>
<!-- Generator: Adobe Illustrator 28.0.0, SVG Export Plug-In . SVG Version: 6.00 Build 0)  -->
<svg version="1.1" id="레이어_1" xmlns="http://www.w3.org/2000/svg" xmlns:xlink="http://www.w3.org/1999/xlink" x="0px"
	 y="0px" viewBox="0 0 1024 1024" width="25" height="29" xml:space="preserve">
<style type="text/css">
	.st0{fill:none;stroke:#000000;stroke-width:50;stroke-linecap:round;stroke-linejoin:round;stroke-miterlimit:10;}
	.st1{fill:none;stroke:#000000;stroke-width:65;stroke-linecap:round;stroke-linejoin:round;stroke-miterlimit:10;}
	.st2{fill:none;stroke:#000000;stroke-width:60;stroke-linecap:round;stroke-linejoin:round;stroke-miterlimit:10;}
	.st3{fill:none;stroke:#000000;stroke-width:70;stroke-linecap:round;stroke-linejoin:round;stroke-miterlimit:10;}
</style>
<polygon class="st0" points="-1795.06,162.76 -1795.06,706.74 -1343.14,706.74 -1343.14,326.05 -1506.43,162.76 "/>
<polyline class="st0" points="-1343.14,326.05 -1506.43,326.05 -1506.43,162.76 "/>
<polyline class="st0" points="-1497.64,706.74 -1497.64,861.24 -1949.56,861.24 -1949.56,317.26 -1795.06,317.26 "/>
<polyline class="st1" points="776.56,434.21 776.56,363.44 646.12,233 415.53,233 415.53,667.58 776.56,667.58 776.56,593.23 "/>
<polyline class="st2" points="776.56,363.44 646.12,363.44 646.12,233 "/>
<polyline class="st1" points="653.14,667.58 653.14,791 292.11,791 292.11,356.42 415.53,356.42 "/>
<path class="st0" d="M-1569.1,367.32c-61.28,0-110.96,49.68-110.96,110.96s49.68,110.96,110.96,110.96
	c61.28,0,110.96-49.68,110.96-110.96h-110.96"/>
<path class="st3" d="M512,59.76H365.63C216.16,59.76,95,191.16,95,353.26v317.49c0,162.09,121.16,293.5,270.63,293.5h292.75
	c149.46,0,270.63-131.4,270.63-293.5V512H646.65"/>
</svg>
