<?xml version="1.0" encoding="UTF-8" standalone="no"?>
<svg
   xmlns:dc="http://purl.org/dc/elements/1.1/"
   xmlns:cc="http://creativecommons.org/ns#"
   xmlns:rdf="http://www.w3.org/1999/02/22-rdf-syntax-ns#"
   xmlns:svg="http://www.w3.org/2000/svg"
   xmlns="http://www.w3.org/2000/svg"
   viewBox="0 0 1365.3333 1365.3333"
   height="1365.3333"
   width="1365.3333"
   xml:space="preserve"
   id="svg2"
   version="1.1"><metadata
     id="metadata8"><rdf:RDF><cc:Work
         rdf:about=""><dc:format>image/svg+xml</dc:format><dc:type
           rdf:resource="http://purl.org/dc/dcmitype/StillImage" /></cc:Work></rdf:RDF></metadata><defs
     id="defs6"><clipPath
       id="clipPath18"
       clipPathUnits="userSpaceOnUse"><path
         id="path16"
         d="M 0,1024 H 1024 V 0 H 0 Z" /></clipPath></defs><g
     transform="matrix(1.3333333,0,0,-1.3333333,0,1365.3333)"
     id="g10"><g
       id="g12"><g
         clip-path="url(#clipPath18)"
         id="g14"><g
           transform="translate(275.7899,835.5323)"
           id="g20"><path
             id="path22"
             style="fill:none;stroke:#868686;stroke-width:70;stroke-linecap:round;stroke-linejoin:round;stroke-miterlimit:10;stroke-dasharray:none;stroke-opacity:1"
             d="M 0,0 C -21.68,0 -39.255,-17.575 -39.255,-39.255 V -495.34 c 0,-21.68 17.575,-39.255 39.255,-39.255 h 336.12 c 21.68,0 39.255,17.575 39.255,39.255 v 297.102 L 177.137,0 Z" /></g><g
           transform="translate(376.6712,200.056)"
           id="g24"><path
             id="path26"
             style="fill:none;stroke:#868686;stroke-width:70;stroke-linecap:round;stroke-linejoin:round;stroke-miterlimit:10;stroke-dasharray:none;stroke-opacity:1"
             d="m 0,0 h 336.12 c 21.68,0 39.255,17.575 39.255,39.255 v 301.072 l -100.882,96.911" /></g><g
           transform="translate(507.9672,637.2944)"
           id="g28"><path
             id="path30"
             style="fill:none;stroke:#868686;stroke-width:70;stroke-linecap:round;stroke-linejoin:round;stroke-miterlimit:10;stroke-dasharray:none;stroke-opacity:1"
             d="M 0,0 H 143.197 L -55.041,198.238 V 55.041 C -55.041,24.643 -30.398,0 0,0 Z" /></g><g
           transform="translate(506.8683,947.5196)"
           id="g32"><path
             id="path34"
             style="fill:none;stroke:#868686;stroke-width:70;stroke-linecap:round;stroke-linejoin:round;stroke-miterlimit:10;stroke-dasharray:none;stroke-opacity:1"
             d="M 0,0 H -204.018 C -331.873,0 -435.52,-103.647 -435.52,-231.501 v -408.037 c 0,-127.855 103.647,-231.501 231.502,-231.501 h 408.036 c 127.855,0 231.502,103.646 231.502,231.501 v 141.107 H 0" /></g></g></g></g></svg>