<svg width="25" height="29" viewBox="0 0 25 29" fill="none" xmlns="http://www.w3.org/2000/svg">
<g clip-path="url(#clip0_15_5)">
<path d="M23.4216 12.9865L12.4997 20.5894L1.57786 12.9865C1.34096 12.8217 1.0573 12.7727 0.789279 12.8504C0.521258 12.9281 0.290833 13.1262 0.148693 13.401C0.00655391 13.6758 -0.0356561 14.0048 0.0313491 14.3157C0.0983543 14.6266 0.269086 14.8939 0.505985 15.0588L11.9643 23.0338C12.1263 23.1467 12.3118 23.2064 12.5008 23.2064C12.6898 23.2064 12.8752 23.1467 13.0372 23.0338L24.4956 15.0588C24.7325 14.8939 24.9032 14.6266 24.9702 14.3157C25.0372 14.0048 24.995 13.6758 24.8529 13.401C24.7107 13.1262 24.4803 12.9281 24.2123 12.8504C23.9443 12.7727 23.6606 12.8217 23.4237 12.9865H23.4216Z" fill="white"/>
<path d="M23.4216 18.5062L12.4997 26.1078L1.57786 18.5062C1.46056 18.4245 1.33054 18.3705 1.19524 18.3471C1.05993 18.3238 0.921986 18.3316 0.789276 18.3701C0.656566 18.4086 0.53169 18.477 0.421778 18.5715C0.311866 18.6659 0.219071 18.7846 0.14869 18.9206C0.0783099 19.0567 0.0317228 19.2075 0.0115889 19.3645C-0.00854509 19.5214 -0.00183161 19.6815 0.031346 19.8354C0.0983512 20.1463 0.269083 20.4136 0.505982 20.5785L11.9643 28.5535C12.1263 28.6664 12.3118 28.726 12.5008 28.726C12.6898 28.726 12.8752 28.6664 13.0372 28.5535L24.4956 20.5785C24.7325 20.4136 24.9032 20.1463 24.9702 19.8354C25.0372 19.5245 24.995 19.1954 24.8529 18.9206C24.7107 18.6458 24.4803 18.4478 24.2123 18.3701C23.9442 18.2923 23.6606 18.3413 23.4237 18.5062H23.4216Z" fill="white"/>
<path d="M12.4997 17.5758C11.9378 17.5755 11.3865 17.398 10.9049 17.0623L0.504879 9.82317C0.350866 9.71574 0.223432 9.56392 0.134963 9.38247C0.046494 9.20101 0 8.99609 0 8.78762C0 8.57916 0.046494 8.37424 0.134963 8.19278C0.223432 8.01133 0.350866 7.85951 0.504879 7.75208L10.9049 0.512958C11.3865 0.177318 11.9378 0 12.4997 0C13.0615 0 13.6128 0.177318 14.0945 0.512958L24.4945 7.75208C24.6485 7.85951 24.7759 8.01133 24.8644 8.19278C24.9528 8.37424 24.9993 8.57916 24.9993 8.78762C24.9993 8.99609 24.9528 9.20101 24.8644 9.38247C24.7759 9.56392 24.6485 9.71574 24.4945 9.82317L14.0945 17.0623C13.6128 17.398 13.0616 17.5755 12.4997 17.5758ZM3.06634 8.78762L11.9788 14.99C12.1362 15.0992 12.3162 15.1569 12.4997 15.1569C12.6831 15.1569 12.8631 15.0992 13.0205 14.99L21.933 8.78762L13.0205 2.58525C12.8631 2.47602 12.6831 2.41834 12.4997 2.41834C12.3162 2.41834 12.1362 2.47602 11.9788 2.58525L3.06634 8.78762Z" fill="white"/>
</g>
<defs>
<clipPath id="clip0_15_5">
<rect width="25" height="29" fill="white"/>
</clipPath>
</defs>
</svg>
